<?xml version="1.0" standalone="no"?>
<!DOCTYPE svg PUBLIC "-//W3C//DTD SVG 20010904//EN"
 "http://www.w3.org/TR/2001/REC-SVG-20010904/DTD/svg10.dtd">
<svg version="1.0" xmlns="http://www.w3.org/2000/svg"
 width="960.000000pt" height="956.000000pt" viewBox="0 0 960.000000 956.000000"
 preserveAspectRatio="xMidYMid meet">
<metadata>
Created by potrace 1.16, written by Peter Selinger 2001-2019
</metadata>
<g transform="translate(0.000000,956.000000) scale(0.100000,-0.100000)"
fill="#000000" stroke="none">
<path d="M4535 8749 c-49 -5 -110 -14 -135 -20 -25 -6 -88 -15 -141 -19 -57
-4 -106 -14 -120 -23 -14 -9 -61 -19 -109 -22 -47 -4 -92 -13 -100 -21 -9 -7
-49 -18 -90 -24 -41 -6 -91 -19 -110 -29 -19 -10 -52 -22 -72 -25 -21 -4 -43
-13 -50 -20 -7 -7 -33 -20 -58 -29 -70 -25 -157 -62 -172 -74 -7 -6 -31 -16
-53 -23 -22 -7 -51 -21 -64 -31 -13 -11 -33 -19 -44 -19 -12 0 -37 -10 -56
-23 -48 -30 -56 -35 -196 -113 -66 -37 -146 -88 -177 -113 -31 -25 -73 -57
-93 -71 -21 -14 -45 -32 -55 -41 -10 -9 -25 -21 -33 -25 -8 -5 -35 -27 -58
-49 -24 -22 -79 -71 -122 -108 -76 -65 -113 -104 -167 -177 -30 -41 -86 -105
-121 -139 -34 -33 -149 -188 -149 -200 0 -5 -8 -12 -19 -16 -10 -3 -26 -23
-36 -45 -10 -22 -22 -40 -27 -40 -4 0 -8 -9 -8 -21 0 -11 -10 -35 -22 -52 -13
-18 -31 -49 -40 -69 -18 -40 -48 -52 -48 -19 0 11 5 23 10 26 6 3 10 11 10 16
0 6 -7 4 -15 -5 -8 -8 -15 -22 -15 -30 0 -9 -4 -16 -10 -16 -5 0 -10 -9 -10
-20 0 -11 -4 -20 -10 -20 -5 0 -10 -7 -10 -15 0 -12 4 -13 19 -4 12 8 16 19
13 32 -4 14 -1 18 9 15 18 -6 15 -59 -4 -73 -8 -6 -17 -21 -22 -35 -4 -14 -17
-43 -30 -65 -12 -22 -26 -51 -30 -65 -4 -14 -16 -36 -26 -49 -11 -13 -19 -30
-19 -37 0 -18 -33 -94 -41 -94 -3 0 -10 17 -16 38 l-10 37 -2 -32 c0 -18 -5
-33 -11 -33 -5 0 -10 -13 -10 -30 0 -16 -4 -30 -10 -30 -5 0 -9 -12 -9 -27 2
-24 2 -25 6 -5 2 12 10 22 18 22 8 0 11 7 8 20 -8 31 4 55 21 41 17 -14 7 -66
-24 -126 -11 -21 -20 -51 -20 -66 0 -15 -11 -47 -25 -70 -16 -29 -25 -60 -25
-89 0 -28 -8 -58 -21 -79 -14 -24 -24 -62 -29 -119 -4 -51 -13 -87 -20 -92 -9
-5 -17 -50 -24 -122 -6 -62 -14 -117 -18 -123 -33 -51 -36 -698 -3 -735 9 -10
15 -36 15 -69 0 -68 21 -192 31 -185 9 5 14 -25 24 -121 3 -32 10 -62 15 -65
14 -9 30 -58 30 -94 0 -18 11 -60 25 -94 14 -34 25 -69 25 -77 0 -9 9 -34 19
-55 11 -22 25 -64 32 -92 8 -29 21 -61 30 -71 9 -10 20 -36 23 -58 4 -22 11
-37 16 -34 8 5 30 -54 30 -82 0 -7 4 -13 8 -13 13 0 43 -70 36 -82 -4 -6 -3
-8 3 -5 12 8 68 -98 59 -112 -4 -6 -1 -11 8 -11 19 0 94 -136 81 -148 -8 -8
-45 40 -39 49 2 4 -3 10 -12 13 -8 3 -12 11 -9 17 4 5 -1 16 -11 24 -11 7 -16
16 -12 20 4 4 -5 18 -19 31 -13 12 -22 28 -18 33 3 6 1 11 -5 11 -6 0 -8 5 -4
12 5 7 3 8 -6 3 -9 -6 -10 -2 -5 15 5 15 3 20 -3 16 -6 -4 -15 2 -21 11 -10
17 -10 17 -11 1 0 -10 5 -18 10 -18 6 0 10 -9 10 -20 0 -11 5 -20 10 -20 6 0
10 -8 10 -18 0 -10 9 -24 20 -32 11 -8 20 -22 20 -32 0 -10 5 -18 10 -18 6 0
10 -9 10 -20 0 -11 5 -20 10 -20 6 0 10 -9 10 -20 0 -11 5 -20 10 -20 6 0 10
-9 10 -20 0 -11 5 -20 10 -20 6 0 10 -7 10 -16 0 -21 20 -39 50 -47 43 -12 53
-24 52 -61 -1 -20 3 -36 8 -36 5 0 7 7 4 15 -19 50 57 -26 120 -119 65 -96
298 -336 444 -458 17 -15 32 -30 32 -35 0 -5 16 -17 35 -27 19 -11 35 -23 35
-27 0 -4 8 -10 18 -13 9 -3 28 -16 42 -29 32 -29 159 -117 169 -117 9 0 51
-47 51 -57 0 -4 -13 5 -28 20 -16 15 -31 25 -34 22 -3 -3 -11 1 -17 9 -7 8
-19 12 -26 9 -21 -7 7 -33 36 -33 12 0 30 -10 41 -22 17 -20 22 -21 50 -10 17
6 28 8 24 5 -3 -4 6 -15 21 -26 16 -10 20 -17 11 -13 -10 3 -18 1 -18 -4 0 -6
7 -10 16 -10 9 0 29 -13 44 -30 15 -16 35 -30 44 -30 9 0 16 -4 16 -10 0 -5 9
-10 20 -10 11 0 20 -4 20 -10 0 -5 9 -10 20 -10 11 0 20 -4 20 -10 0 -5 13
-10 28 -10 16 0 34 -8 42 -20 8 -12 26 -20 42 -20 15 0 28 -4 28 -10 0 -5 10
-10 22 -10 20 0 20 1 4 19 -11 12 -26 18 -41 15 -14 -2 -25 2 -29 11 -3 8 -11
15 -18 15 -7 0 -40 14 -73 30 -33 17 -65 30 -72 30 -7 0 -13 5 -13 10 0 6 -6
10 -12 10 -19 1 -64 38 -55 46 4 4 15 1 24 -7 10 -9 47 -29 83 -46 203 -97
262 -127 252 -131 -20 -6 -13 -22 8 -22 11 0 20 -4 20 -10 0 -5 9 -10 20 -10
11 0 20 -4 20 -10 0 -5 14 -10 30 -10 17 0 30 -4 30 -10 0 -5 7 -10 16 -10 8
0 12 5 9 10 -9 14 26 12 58 -2 28 -13 38 -35 12 -24 -9 3 -15 0 -15 -9 0 -8 9
-15 20 -15 11 0 20 -4 20 -10 0 -5 14 -10 30 -10 17 0 30 -4 30 -10 0 -5 14
-10 30 -10 17 0 30 -4 30 -10 0 -6 27 -10 60 -10 33 0 60 -4 60 -10 0 -5 14
-10 30 -10 17 0 30 -4 30 -10 0 -6 30 -10 70 -10 40 0 70 -4 70 -10 0 -5 18
-10 40 -10 22 0 40 -5 40 -10 0 -7 42 -9 123 -7 67 2 158 1 202 -2 77 -6 75
-6 -60 -12 -77 -3 -11 -4 148 -2 257 4 287 3 287 -11 0 -9 5 -16 10 -16 6 0
10 5 10 10 0 6 53 10 140 10 87 0 140 4 140 10 0 6 30 10 70 10 40 0 70 4 70
10 0 6 23 10 50 10 28 0 50 5 50 10 0 6 30 10 70 10 40 0 70 4 70 10 0 6 14
10 30 10 17 0 30 5 30 10 0 6 27 10 60 10 33 0 60 4 60 10 0 6 14 10 30 10 17
0 30 5 30 10 0 6 14 10 30 10 17 0 30 5 30 10 0 6 9 10 20 10 14 0 20 7 20 21
l0 21 -36 -21 c-19 -12 -42 -21 -50 -21 -8 0 -14 -4 -14 -10 0 -13 -37 -13
-45 0 -3 5 14 14 37 20 24 6 62 20 85 31 47 21 67 24 58 9 -3 -5 1 -10 10 -10
10 0 15 6 12 13 -3 9 5 12 32 10 25 -2 30 -1 18 5 -17 7 -17 9 -3 21 11 9 16
10 16 2 0 -6 14 -11 30 -11 17 0 30 5 30 10 0 6 13 10 28 10 16 0 34 8 42 20
8 12 26 20 42 20 15 0 28 5 28 10 0 6 9 10 20 10 11 0 20 5 20 10 0 6 14 10
30 10 17 0 30 5 30 10 0 6 9 10 20 10 11 0 20 5 20 10 0 6 9 10 20 10 11 0 20
5 20 10 0 6 9 10 20 10 11 0 20 7 20 16 0 8 -3 14 -7 12 -5 -2 -20 -9 -35 -16
-16 -7 -39 -17 -53 -24 -14 -6 -28 -8 -32 -5 -8 9 -12 6 77 49 56 27 83 35
108 31 25 -4 37 0 51 16 10 11 26 21 35 21 9 0 16 5 16 10 0 6 8 10 18 10 10
0 24 9 32 20 8 11 21 20 30 20 9 0 22 9 30 20 8 11 22 20 32 20 10 0 18 5 18
10 0 6 7 10 16 10 20 0 44 24 44 44 0 9 5 16 10 16 6 0 10 5 10 11 0 6 -21 -8
-46 -30 -26 -23 -51 -41 -57 -41 -5 0 -20 -11 -32 -24 -13 -14 -26 -22 -29
-19 -3 4 -14 -1 -24 -10 -10 -10 -22 -14 -26 -10 -4 4 -4 0 0 -10 7 -18 -3
-22 -24 -8 -10 6 1 17 40 39 57 33 152 101 229 164 26 21 48 38 50 38 8 0 163
145 266 249 63 64 107 101 113 95 5 -5 -10 -30 -40 -64 -27 -30 -45 -56 -40
-58 13 -5 60 44 60 63 0 8 9 15 20 15 13 0 20 7 20 18 0 10 9 24 20 32 11 8
20 24 19 35 0 19 -1 18 -9 -2 -9 -23 -50 -33 -50 -13 0 6 4 10 9 10 8 0 82 93
126 158 6 8 24 29 40 47 37 40 160 231 170 263 6 22 8 23 25 7 17 -16 21 -16
35 -2 8 9 15 23 15 31 0 9 5 16 10 16 6 0 10 9 10 20 0 11 5 20 10 20 6 0 10
9 10 20 0 11 5 20 10 20 6 0 10 9 10 20 l0 20 -20 -20 c-11 -11 -20 -22 -20
-25 0 -16 -52 -115 -61 -115 -6 0 -8 4 -5 8 3 5 7 21 10 36 3 16 12 36 19 45
8 9 20 32 27 52 7 20 21 41 32 48 16 10 20 8 28 -11 l9 -23 0 23 c1 12 -5 25
-13 28 -17 7 -4 54 26 93 10 13 18 30 18 37 0 17 21 64 29 64 4 0 8 -11 9 -25
1 -14 -3 -25 -8 -25 -6 0 -10 -13 -10 -30 0 -16 -6 -33 -14 -37 -9 -5 -11 -15
-5 -28 7 -19 8 -19 8 3 1 12 6 22 11 22 6 0 10 14 10 30 0 17 5 30 10 30 6 0
10 9 10 20 0 11 5 20 10 20 6 0 10 7 10 15 0 8 -6 14 -12 12 -8 -1 -12 7 -10
22 6 37 20 71 31 71 5 0 12 19 16 43 4 23 18 63 31 89 13 26 24 54 24 63 0 9
8 32 19 53 10 20 23 74 29 120 5 46 17 91 25 100 9 11 17 51 21 107 4 50 13
99 20 110 22 35 28 75 38 280 12 236 13 377 3 578 -7 134 -6 147 9 141 9 -3
16 -1 16 5 0 6 -4 11 -10 11 -6 0 -11 32 -12 73 l-2 72 -6 -75 c-4 -45 -7 -59
-8 -35 -1 22 -9 53 -17 69 -8 16 -20 72 -26 124 -6 55 -19 112 -30 133 -10 21
-19 54 -19 74 0 41 -19 125 -32 141 -4 6 -15 36 -24 65 -9 30 -21 60 -27 68
-6 7 -13 25 -15 39 -2 14 -14 44 -28 67 -13 23 -24 51 -24 62 0 11 -9 28 -20
38 -11 10 -20 23 -20 29 0 20 -202 414 -237 463 -13 17 -23 34 -23 38 0 3 -26
40 -57 82 -32 41 -65 84 -73 96 -21 32 -63 81 -151 177 -43 47 -90 102 -106
121 -37 47 -268 259 -282 259 -6 0 -11 3 -11 8 0 4 -17 18 -37 32 -20 14 -47
35 -59 48 -13 12 -26 22 -30 22 -4 0 -14 7 -23 15 -48 45 -128 95 -301 187
-41 22 -87 49 -102 59 -14 11 -31 19 -38 19 -11 0 -158 68 -270 125 -25 12
-62 26 -83 29 -21 4 -35 11 -32 17 4 5 -3 9 -14 9 -11 0 -23 5 -26 10 -3 6
-15 10 -26 10 -11 0 -39 9 -63 19 -23 11 -67 23 -97 27 -30 3 -74 15 -99 24
-25 10 -75 20 -111 23 -36 2 -87 14 -113 26 -33 14 -69 21 -110 21 -34 0 -89
7 -121 16 -122 31 -404 42 -610 23z m575 -152 c30 -8 101 -17 158 -20 56 -4
117 -13 135 -21 17 -8 67 -19 110 -25 76 -11 132 -35 121 -52 -9 -15 -24 -10
-24 7 0 12 -7 15 -31 12 -21 -3 -33 0 -36 9 -4 11 -22 14 -66 12 -40 -2 -62 1
-65 9 -2 7 -25 12 -58 12 -30 0 -54 5 -54 10 0 6 -33 10 -80 10 -47 0 -80 -4
-80 -10 0 -6 33 -10 80 -10 47 0 80 -4 80 -10 0 -5 23 -10 50 -10 28 0 50 -4
50 -10 0 -6 30 -10 70 -10 40 0 70 -4 70 -10 0 -5 14 -10 30 -10 17 0 30 -4
30 -10 0 -5 14 -10 30 -10 17 0 30 -4 30 -10 0 -5 19 -9 43 -9 42 2 42 2 8 8
-19 3 -36 12 -39 20 -4 11 3 12 34 6 21 -4 42 -9 46 -11 12 -8 9 -32 -4 -37
-7 -3 17 -4 53 -4 52 1 71 -3 96 -21 17 -12 44 -22 61 -22 16 0 41 -9 55 -20
14 -11 40 -23 59 -27 18 -3 35 -9 38 -13 5 -7 175 -90 185 -90 2 0 30 -17 61
-37 80 -54 97 -63 116 -63 9 0 21 -6 25 -14 4 -8 31 -26 58 -41 60 -34 136
-92 159 -122 26 -34 -2 -29 -41 7 -18 17 -36 30 -40 30 -4 0 -21 13 -38 28
-40 36 -81 62 -100 62 -8 0 -15 4 -15 8 0 5 -18 18 -40 31 -22 12 -40 19 -40
16 0 -12 28 -35 42 -35 8 0 20 -9 28 -20 8 -11 22 -20 32 -20 10 0 18 -4 18
-10 0 -5 7 -10 16 -10 9 0 29 -13 44 -30 15 -16 33 -30 40 -30 7 0 25 -14 41
-31 25 -27 35 -31 63 -26 39 6 42 4 195 -133 139 -124 173 -158 166 -170 -4
-6 -11 -8 -16 -5 -5 4 -9 1 -9 -4 0 -6 5 -11 10 -11 6 0 10 -9 10 -20 0 -12 7
-20 16 -20 13 0 14 3 5 14 -6 7 -9 21 -5 29 4 13 22 -1 75 -56 37 -40 85 -96
106 -125 21 -29 68 -91 106 -138 37 -48 67 -90 67 -95 0 -5 8 -17 18 -27 9
-10 25 -33 35 -52 41 -80 51 -96 74 -123 12 -16 23 -36 23 -46 0 -10 11 -31
25 -47 14 -16 25 -39 25 -50 0 -12 7 -27 14 -34 8 -6 20 -28 27 -48 6 -20 17
-44 24 -52 7 -8 18 -33 25 -55 7 -22 21 -54 31 -71 11 -17 19 -40 19 -50 0
-11 11 -41 25 -69 13 -27 25 -57 25 -65 0 -8 11 -38 23 -65 13 -28 26 -78 30
-113 3 -42 11 -68 22 -76 11 -8 19 -36 24 -86 5 -41 18 -106 30 -145 15 -50
21 -97 21 -165 0 -52 5 -147 11 -210 7 -81 7 -193 -1 -380 -11 -264 -23 -380
-42 -391 -5 -4 -13 -46 -18 -95 -5 -58 -15 -103 -29 -129 -12 -22 -21 -58 -21
-83 0 -26 -7 -53 -19 -70 -11 -15 -22 -45 -26 -67 -4 -22 -15 -53 -25 -70 -10
-16 -21 -46 -25 -65 -4 -19 -18 -55 -31 -79 -13 -24 -24 -52 -24 -62 0 -9 -7
-24 -15 -33 -9 -8 -22 -34 -31 -58 -8 -23 -21 -49 -28 -58 -8 -8 -17 -26 -21
-40 -4 -14 -14 -36 -23 -50 -9 -14 -23 -38 -32 -55 -9 -16 -26 -46 -37 -65
-11 -19 -31 -53 -44 -75 -39 -66 -100 -152 -161 -227 -32 -38 -58 -74 -58 -78
0 -8 -38 -51 -219 -248 -76 -83 -210 -202 -266 -237 -16 -11 -40 -28 -52 -40
-43 -38 -59 -50 -178 -130 -137 -91 -163 -108 -225 -136 -25 -11 -49 -27 -53
-35 -4 -8 -18 -14 -31 -14 -13 0 -34 -8 -47 -18 -13 -11 -37 -22 -53 -26 -16
-4 -45 -18 -65 -32 -19 -13 -40 -24 -45 -24 -5 0 -34 -12 -63 -26 -56 -26 -90
-26 -79 1 3 8 1 15 -4 15 -6 0 -10 -4 -10 -9 0 -5 -8 -12 -17 -14 -14 -4 -12
-5 5 -6 12 0 22 -4 22 -8 0 -10 -99 -53 -119 -53 -8 0 -34 -9 -57 -21 -24 -11
-68 -23 -99 -26 -30 -3 -55 -9 -55 -12 0 -12 -62 -29 -140 -40 -42 -6 -91 -17
-110 -24 -22 -9 -120 -20 -270 -28 -251 -15 -397 -15 -525 1 -44 6 -130 10
-192 10 -86 0 -123 4 -160 19 -26 10 -79 22 -117 26 -38 4 -82 15 -100 26 -17
10 -46 19 -64 19 -42 0 -122 20 -122 30 0 4 -21 13 -46 19 -26 7 -63 20 -83
31 -20 10 -53 21 -73 25 -20 4 -45 15 -57 26 -11 10 -29 19 -40 19 -23 0 -71
20 -71 29 0 4 -20 13 -45 20 -25 7 -45 17 -45 21 0 4 -15 13 -32 20 -52 19
-70 28 -113 55 -22 13 -60 35 -85 49 -58 31 -171 105 -234 153 -27 20 -73 53
-103 73 -74 51 -323 274 -323 290 0 3 -41 48 -91 100 -50 52 -111 124 -134
160 -24 36 -58 81 -77 101 -18 20 -39 48 -47 63 -8 14 -17 26 -21 26 -4 0 -17
22 -30 50 -13 28 -27 50 -32 50 -4 0 -8 6 -8 14 0 7 -11 30 -25 51 -34 49
-185 343 -185 360 0 7 -9 24 -20 37 -10 14 -23 44 -29 67 -5 23 -15 51 -23 64
-8 12 -18 39 -22 60 -4 21 -16 55 -26 75 -10 21 -21 63 -25 95 -3 31 -9 57
-13 57 -12 0 -32 53 -32 87 0 18 -9 56 -21 85 -14 35 -25 103 -35 203 -8 83
-21 200 -28 260 -17 130 -12 384 10 520 7 50 18 143 23 207 6 68 16 127 24
140 8 13 20 57 26 98 7 42 18 80 26 86 9 7 19 41 24 83 5 40 16 80 24 89 8 9
20 44 27 76 8 41 15 55 21 45 12 -19 11 -69 -1 -69 -5 0 -10 -11 -10 -25 0
-13 -9 -40 -20 -60 -11 -19 -17 -35 -14 -35 11 0 34 29 34 44 0 9 5 16 10 16
6 0 10 14 10 30 0 17 5 30 10 30 6 0 10 14 10 30 0 17 5 30 10 30 6 0 10 9 10
20 0 11 5 20 10 20 6 0 10 14 10 30 0 17 5 30 10 30 6 0 10 9 10 20 0 11 5 20
10 20 6 0 10 14 10 31 0 17 -4 28 -10 24 -5 -3 -6 -13 -3 -22 5 -12 2 -15 -9
-10 -13 4 -16 1 -12 -18 3 -15 -2 -27 -12 -33 -11 -6 -15 -17 -11 -31 3 -14 0
-24 -9 -28 -8 -3 -14 -14 -14 -24 0 -10 -5 -19 -10 -19 -26 0 64 234 139 360
5 8 24 45 42 83 18 37 36 67 39 67 4 0 19 25 35 55 15 31 32 52 38 48 6 -3 7
-1 3 5 -7 11 16 65 38 88 6 6 22 26 36 43 14 18 32 40 40 49 8 10 37 49 64 87
40 57 284 311 361 377 11 9 31 29 45 45 37 41 142 133 153 133 5 0 23 12 40
26 18 15 33 22 35 15 5 -14 42 -15 42 -1 0 6 9 10 20 10 11 0 20 5 20 10 0 6
8 10 18 10 10 0 24 9 32 20 8 11 20 20 28 20 16 0 66 49 58 57 -3 4 -16 -3
-29 -15 -13 -12 -27 -22 -31 -22 -4 0 -23 -12 -41 -26 -19 -14 -39 -23 -45
-19 -5 3 -10 0 -10 -7 0 -15 -39 -43 -47 -34 -12 12 28 53 83 86 33 19 72 44
87 57 16 13 37 23 48 23 11 0 22 7 25 15 4 8 12 15 18 15 7 0 30 13 52 29 22
16 52 33 66 36 15 4 32 13 39 21 6 8 29 19 50 24 21 6 44 17 52 24 8 8 34 20
58 26 24 7 51 18 59 25 19 17 93 34 123 29 18 -4 19 -3 4 4 -16 7 -17 10 -4
20 19 16 97 27 97 14 0 -6 -6 -13 -12 -15 -8 -3 -6 -6 5 -6 9 -1 17 4 17 9 0
6 14 10 30 10 17 0 30 5 30 10 0 6 10 11 23 11 18 1 19 2 3 6 -10 3 -23 0 -29
-6 -6 -6 -22 -11 -35 -11 -38 0 -10 25 45 41 36 10 48 10 51 1 2 -7 22 -12 44
-12 47 0 46 11 -1 12 -31 1 -45 18 -16 18 9 0 26 6 38 14 12 8 58 19 101 25
44 6 84 15 90 20 19 15 115 31 191 31 40 0 86 5 102 11 51 21 164 27 418 24
179 -2 266 -7 305 -18z"/>
<path d="M5842 7486 c-6 -14 -14 -56 -18 -93 -4 -38 -14 -86 -24 -108 -10 -22
-21 -67 -25 -100 -4 -33 -15 -86 -26 -117 -10 -32 -19 -82 -19 -112 0 -36 -7
-69 -20 -93 -11 -21 -24 -74 -29 -118 -5 -44 -16 -100 -25 -124 -9 -24 -21
-73 -26 -110 -6 -36 -19 -88 -29 -116 -11 -27 -22 -83 -25 -124 -3 -41 -10
-77 -17 -81 -14 -9 -28 -79 -29 -147 0 -29 -6 -57 -13 -65 -18 -17 -37 -96
-37 -151 0 -24 -9 -61 -19 -83 -11 -22 -22 -69 -26 -104 -6 -63 -21 -124 -36
-145 -4 -6 -11 -45 -15 -88 -4 -48 -15 -95 -30 -124 l-23 -48 -1 58 c0 31 4
57 10 57 6 0 10 13 10 28 0 15 5 33 11 39 5 5 8 36 6 69 l-3 59 -2 -62 c-1
-35 -6 -63 -12 -63 -5 0 -10 -13 -10 -30 0 -16 -4 -30 -10 -30 -12 0 -14 -137
-2 -142 13 -5 -4 -139 -17 -148 -12 -7 -13 -13 -26 -130 -4 -36 -14 -76 -22
-89 -9 -14 -20 -62 -24 -107 -5 -46 -17 -100 -28 -121 -10 -21 -22 -72 -26
-113 -4 -41 -13 -87 -21 -102 -8 -16 -19 -65 -24 -111 -6 -45 -15 -91 -20
-102 -16 -35 -30 -99 -30 -138 0 -21 -11 -63 -24 -95 -13 -31 -26 -90 -30
-130 -4 -44 -12 -80 -21 -89 -8 -8 -15 -17 -15 -21 0 -4 -5 -45 -10 -92 -11
-95 -40 -165 -74 -174 -36 -10 -233 -7 -262 4 -26 10 -27 12 -21 71 4 33 16
79 27 104 13 28 20 65 20 102 0 59 15 103 38 111 7 2 12 -6 12 -22 0 -14 -4
-26 -10 -26 -6 0 -10 -28 -10 -65 0 -49 -3 -65 -14 -65 -11 0 -13 -10 -9 -42
8 -57 13 -61 13 -10 0 23 5 42 10 42 6 0 10 27 10 60 0 34 4 60 10 60 7 0 8
40 4 113 -5 90 -4 119 9 150 9 20 20 37 25 37 5 0 12 42 15 93 5 94 13 131 27
122 4 -3 11 32 15 77 4 45 18 111 31 145 15 40 24 85 24 121 0 31 7 70 15 86
8 15 15 36 15 45 0 14 2 14 10 1 14 -21 12 -68 -2 -72 -8 -3 -11 -25 -9 -66 2
-49 -1 -63 -13 -68 -18 -7 -22 -69 -6 -79 6 -4 10 10 10 34 0 23 5 41 10 41 6
0 10 27 10 60 0 36 4 60 11 60 7 0 8 35 3 115 -5 83 -3 123 6 145 16 38 30 39
30 0 0 -16 -4 -30 -10 -30 -6 0 -9 -28 -8 -67 l2 -68 3 63 c2 34 8 62 13 62 6
0 10 14 10 30 0 17 5 30 10 30 6 0 10 30 10 70 0 40 4 70 10 70 6 0 10 8 10
17 0 15 -2 14 -15 -3 -9 -11 -14 -42 -15 -76 0 -32 -4 -58 -9 -58 -6 0 -8 30
-5 73 6 90 12 118 28 131 7 6 18 53 24 106 6 52 18 110 28 129 9 19 21 69 25
110 4 42 11 86 14 99 8 24 25 30 25 8 0 -8 3 -21 6 -30 4 -11 1 -16 -11 -16
-14 0 -16 -10 -14 -62 2 -41 -1 -63 -9 -66 -7 -2 -12 -17 -12 -32 0 -16 -4
-32 -10 -35 -5 -3 -10 -26 -10 -51 0 -24 5 -44 10 -44 6 0 10 18 10 40 0 22 5
40 10 40 6 0 10 18 10 40 0 22 5 40 10 40 6 0 10 27 10 60 0 33 4 60 10 60 14
0 13 67 -1 76 -14 8 -2 160 16 194 l13 25 7 -29 c5 -18 3 -31 -5 -36 -16 -10
-24 -115 -11 -138 8 -12 10 2 11 56 0 41 4 72 10 72 6 0 10 14 10 30 0 17 5
30 10 30 6 0 9 30 8 73 l-2 72 -3 -60 c-5 -80 -23 -97 -23 -22 0 64 18 157 30
157 13 0 19 24 25 112 5 52 14 94 25 113 11 19 21 62 25 115 5 58 13 93 26
112 12 16 19 43 19 71 0 65 18 148 35 161 11 8 15 36 16 108 1 54 5 95 10 93
4 -3 10 -1 14 5 7 11 -559 15 -613 4 -28 -6 -34 -14 -47 -59 -27 -94 -35 -129
-40 -179 -4 -33 -13 -69 -20 -80 -8 -12 -20 -62 -28 -112 -9 -51 -22 -107 -30
-125 -8 -19 -18 -70 -22 -114 -3 -45 -12 -86 -20 -95 -12 -13 -36 -143 -36
-193 0 -9 -4 -15 -9 -12 -8 5 -19 -29 -26 -80 -2 -16 -6 -52 -10 -80 -3 -27
-12 -60 -20 -73 -8 -13 -17 -46 -20 -75 -6 -62 -24 -138 -36 -153 -5 -6 -13
-51 -19 -100 -6 -48 -18 -98 -26 -110 -8 -12 -16 -51 -19 -86 -3 -34 -13 -83
-24 -108 -10 -25 -21 -79 -25 -120 -4 -41 -14 -86 -22 -99 -9 -13 -20 -60 -24
-104 -5 -43 -18 -100 -28 -126 -11 -25 -22 -74 -26 -109 -3 -35 -14 -82 -24
-105 -10 -23 -21 -78 -24 -121 -3 -49 -11 -82 -19 -87 -7 -5 -9 -9 -4 -9 5 0
3 -6 -3 -14 -6 -8 -16 -53 -22 -102 -6 -55 -17 -100 -29 -120 -15 -23 -20 -51
-21 -100 -1 -78 -9 -116 -24 -114 -15 2 -23 -37 -24 -122 -1 -73 -2 -77 -23
-76 -13 1 -30 7 -38 13 -8 7 -32 18 -52 24 -21 7 -40 17 -44 22 -3 5 -27 20
-54 34 -26 13 -58 38 -70 55 -21 30 -21 32 -4 51 12 14 20 44 24 107 4 48 11
95 15 105 12 28 25 19 25 -18 0 -19 -4 -35 -10 -35 -6 0 -9 -31 -8 -77 l2 -78
3 73 c3 43 8 72 15 72 7 0 9 19 5 58 -7 71 7 212 22 221 14 9 31 98 31 161 0
28 6 52 14 59 16 13 25 50 36 146 4 39 15 88 25 110 10 22 20 67 22 100 2 33
13 75 24 95 12 22 22 70 28 128 6 62 14 97 24 105 10 8 17 40 22 101 4 62 12
96 25 115 13 17 21 52 26 106 3 44 14 98 24 120 10 22 20 70 23 106 3 40 13
82 25 105 14 27 22 64 25 118 3 58 9 82 20 91 10 7 20 35 24 71 l8 59 6 -70 5
-70 2 66 c1 36 -1 69 -5 73 -4 4 -6 24 -4 45 2 36 0 40 -26 44 -34 7 -265 11
-460 9 l-142 -2 -7 -37 c-4 -21 -13 -45 -20 -54 -8 -8 -19 -53 -25 -100 -6
-46 -19 -109 -29 -139 -10 -30 -21 -78 -24 -107 -4 -28 -15 -75 -25 -105 -10
-29 -21 -80 -24 -114 -4 -33 -16 -82 -27 -108 -11 -26 -21 -60 -22 -74 0 -15
-4 -4 -8 23 l-7 50 -1 -52 c-1 -29 -6 -53 -12 -53 -5 0 -10 -4 -10 -9 0 -5 8
-8 17 -7 14 1 17 -6 14 -34 -1 -19 -9 -47 -17 -63 -8 -15 -16 -45 -19 -66 -8
-86 -19 -137 -36 -176 -10 -22 -19 -63 -19 -92 0 -29 -9 -72 -21 -100 -11 -26
-24 -82 -29 -125 -5 -42 -16 -93 -24 -113 -9 -20 -20 -70 -25 -112 -5 -41 -14
-80 -20 -86 -17 -17 -101 81 -101 119 0 8 -5 14 -11 14 -5 0 -8 4 -4 9 3 5 1
12 -5 16 -12 8 -13 55 -1 55 5 0 12 -6 14 -12 3 -8 6 -6 6 5 1 9 -3 17 -9 17
-5 0 -10 14 -10 30 0 17 -4 30 -10 30 -5 0 -10 9 -10 20 0 11 -4 20 -10 20 -5
0 -11 24 -12 53 l-1 52 -6 -50 c-4 -35 -2 -52 7 -58 7 -5 10 -17 7 -28 -5 -13
-2 -19 7 -17 8 2 14 -8 16 -26 l4 -30 -27 32 c-17 20 -29 48 -32 75 -2 23 -13
58 -24 78 -12 24 -22 71 -27 137 -5 56 -14 107 -20 114 -5 7 -13 69 -17 138
-6 105 -4 132 10 170 10 27 20 94 25 170 7 116 21 175 44 192 6 4 9 24 8 45
-2 21 4 56 12 78 15 43 14 44 29 -30 3 -12 5 -7 6 13 0 17 6 32 11 32 6 0 10
14 10 30 0 17 5 30 10 30 6 0 10 7 10 15 0 9 -6 12 -15 9 -9 -4 -15 -19 -15
-40 0 -19 -5 -34 -11 -34 -7 0 -8 11 -3 33 4 17 7 38 7 45 0 6 5 12 10 12 6 0
8 3 4 6 -11 11 29 45 46 38 12 -4 17 -1 17 10 0 10 -6 13 -15 10 -23 -9 -18
26 9 67 14 20 28 48 31 62 10 38 32 53 40 27 6 -17 8 -18 21 -6 15 16 20 71 4
61 -5 -3 -7 -12 -3 -20 6 -17 -12 -21 -22 -5 -9 15 33 80 52 80 8 0 13 -6 10
-12 -2 -7 -9 -12 -15 -11 -6 2 -9 -4 -6 -12 5 -12 8 -12 20 0 16 16 19 45 4
45 -5 0 -10 5 -10 10 0 6 7 10 15 10 8 0 15 -5 15 -10 0 -6 11 0 25 14 14 14
25 30 25 37 0 7 -8 2 -19 -9 -26 -31 -34 -27 -13 7 9 15 28 47 42 69 14 23 33
45 42 49 10 4 53 42 96 83 100 95 188 170 200 170 5 0 16 7 23 16 7 9 38 32
69 51 30 20 65 46 77 59 12 13 34 24 48 24 14 0 38 9 54 21 15 11 34 21 42 23
30 5 64 19 77 32 7 8 25 14 39 14 13 0 52 11 86 24 34 13 90 27 124 31 42 5
76 16 106 35 44 28 44 28 57 111 6 46 16 92 21 102 16 28 2 57 -24 51 -12 -3
-65 -9 -117 -14 -52 -6 -120 -19 -150 -30 -30 -11 -61 -20 -70 -20 -8 0 -37
-11 -65 -24 -27 -14 -67 -27 -87 -31 -24 -4 -38 -11 -38 -20 0 -10 -10 -15
-27 -15 -16 -1 -64 -21 -108 -45 -44 -25 -93 -52 -110 -60 -16 -8 -55 -31 -85
-50 -30 -19 -66 -39 -79 -45 -21 -9 -127 -95 -156 -126 -5 -6 -23 -18 -38 -28
-55 -34 -169 -152 -205 -212 -20 -34 -54 -81 -75 -105 -46 -54 -107 -149 -107
-166 0 -7 -4 -13 -8 -13 -5 0 -17 -7 -28 -16 -10 -8 -13 -13 -6 -9 6 3 12 3
12 0 0 -14 -41 -85 -49 -85 -5 0 -12 -16 -15 -35 -4 -19 -13 -38 -20 -42 -15
-9 -28 -39 -32 -72 -4 -33 -11 -36 -24 -10 -10 19 -10 24 4 34 9 7 16 23 16
35 0 13 10 34 21 46 15 16 19 29 14 41 -8 17 -8 17 -13 -2 -2 -11 -13 -27 -23
-36 -11 -9 -19 -28 -19 -43 0 -14 -4 -26 -10 -26 -5 0 -10 -9 -10 -20 0 -11
-4 -20 -10 -20 -5 0 -10 -13 -10 -30 0 -16 5 -30 10 -30 18 0 10 -69 -14 -122
-13 -29 -25 -66 -27 -83 -2 -16 -7 -36 -12 -42 -5 -7 -6 -13 -2 -13 5 0 0 -9
-11 -21 -17 -18 -20 -46 -28 -228 -4 -113 -8 -217 -7 -231 7 -224 19 -349 38
-390 11 -25 23 -67 26 -94 4 -27 14 -60 23 -74 8 -13 20 -50 25 -84 5 -33 16
-70 24 -81 7 -12 19 -43 25 -69 7 -26 18 -49 25 -52 8 -3 17 -21 21 -40 3 -20
10 -36 14 -36 4 0 31 -47 61 -105 74 -144 71 -140 118 -193 88 -99 108 -132
95 -154 -4 -7 -2 -8 5 -4 8 5 45 -24 101 -78 49 -47 96 -86 104 -86 8 0 19 -6
23 -13 4 -6 24 -24 43 -38 19 -15 51 -42 71 -60 57 -54 78 -69 98 -69 11 0 21
-3 23 -8 2 -4 16 -17 32 -30 16 -12 26 -23 22 -23 -26 -5 -34 -2 -58 20 -16
13 -28 21 -28 16 0 -5 -14 4 -30 20 -17 16 -30 25 -30 20 0 -5 -13 4 -30 20
-42 40 -38 22 5 -20 19 -19 41 -35 50 -35 8 0 15 -4 15 -10 0 -5 8 -10 18 -10
10 0 24 -9 32 -20 8 -11 26 -20 40 -20 14 0 32 -9 40 -20 8 -11 22 -20 32 -20
10 0 18 -4 18 -10 0 -5 7 -10 16 -10 13 0 13 2 2 13 -7 7 -25 18 -40 24 -16 7
-28 19 -28 28 0 21 8 19 46 -10 18 -14 39 -25 48 -25 8 0 18 -5 21 -10 11 -17
138 -77 180 -84 22 -4 54 -14 70 -21 17 -7 58 -18 93 -25 34 -7 62 -17 62 -21
0 -5 -6 -9 -14 -9 -8 0 -21 -3 -30 -6 -11 -4 -16 -1 -16 11 0 13 -8 16 -41 14
-26 -2 -43 2 -48 10 -7 10 -17 11 -37 5 l-29 -8 33 -4 c17 -2 32 -7 32 -13 0
-5 18 -9 40 -9 22 0 40 -4 40 -10 0 -5 14 -10 30 -10 17 0 30 -4 30 -10 0 -6
32 -10 76 -10 54 0 73 3 68 12 -10 15 133 5 251 -19 l90 -18 -75 -6 c-48 -3
-1 -6 128 -7 129 -1 202 2 202 8 0 6 40 10 100 10 60 0 100 4 100 10 0 6 18
10 40 10 22 0 40 5 40 10 0 6 15 10 33 11 l32 1 -40 12 c-48 14 -39 22 43 35
33 5 71 16 84 25 31 20 130 38 125 22 -2 -6 -14 -13 -28 -14 -13 -2 -28 -8
-33 -13 -6 -5 -22 -9 -37 -9 -15 0 -29 -6 -31 -12 -3 -8 -20 -11 -46 -9 -25 1
-42 -2 -42 -8 0 -6 21 -11 50 -11 28 0 50 5 50 10 0 6 14 10 30 10 17 0 30 5
30 10 0 6 14 10 30 10 17 0 30 5 30 10 0 6 9 10 20 10 11 0 20 5 20 10 0 6 7
10 16 10 15 0 50 28 43 35 -2 2 -22 -5 -43 -16 -46 -22 -46 -22 -46 -9 0 6 12
15 28 21 15 5 43 21 63 35 38 26 79 39 79 24 0 -5 -8 -14 -17 -19 -17 -10 -17
-10 0 -11 9 0 17 5 17 10 0 6 7 10 16 10 8 0 22 7 30 15 9 8 12 15 7 15 -5 0
-14 -5 -21 -12 -6 -6 -14 -9 -18 -6 -11 11 15 46 39 51 39 10 190 105 240 152
38 36 47 41 47 25 0 -11 5 -20 10 -20 6 0 8 10 5 23 -3 12 0 29 7 38 11 14
104 81 125 91 10 4 63 67 128 152 28 35 54 64 59 62 21 -5 15 -24 -18 -60 -20
-20 -35 -39 -35 -42 2 -10 -160 -174 -170 -174 -6 0 -27 -16 -48 -35 -21 -19
-32 -35 -25 -35 8 0 27 14 42 30 15 17 33 30 39 30 15 0 181 166 181 181 0 6
14 24 30 39 17 15 30 33 30 40 0 7 14 25 30 40 17 15 30 34 30 41 0 7 -13 0
-30 -16 -16 -16 -32 -27 -34 -24 -2 2 18 38 46 79 28 41 78 127 111 190 33 63
68 126 79 139 10 13 18 34 18 46 0 12 11 42 23 66 13 24 27 66 30 93 4 27 14
57 23 67 8 9 19 45 24 79 5 34 14 68 20 75 18 21 27 151 29 417 2 232 -13 453
-30 426 -11 -17 -16 2 -22 77 -3 33 -14 78 -25 100 -12 22 -22 54 -24 70 -2
17 -11 41 -20 55 -9 14 -20 39 -24 55 -7 30 -63 155 -73 165 -12 10 -31 50
-31 64 0 22 -31 28 -46 9 -27 -34 -31 -49 -38 -128 -4 -48 -15 -95 -26 -118
-26 -50 -27 -141 -1 -182 10 -17 23 -59 29 -94 7 -37 18 -68 28 -76 14 -10 18
-37 23 -152 5 -101 10 -145 21 -158 20 -24 17 -186 -3 -235 -10 -22 -18 -88
-22 -175 -5 -98 -11 -143 -20 -151 -14 -11 -23 -37 -29 -89 -5 -41 -23 -85
-36 -85 -5 0 -10 -18 -10 -39 0 -22 -4 -42 -9 -45 -4 -3 -32 -53 -60 -111 -29
-58 -56 -105 -61 -105 -4 0 -10 -10 -14 -23 -3 -13 -17 -36 -31 -51 -14 -15
-25 -31 -25 -36 0 -13 -156 -204 -216 -264 -55 -56 -113 -106 -122 -106 -3 0
-36 -22 -74 -50 -75 -55 -122 -65 -133 -31 -7 22 3 67 21 96 6 11 16 60 22
109 6 50 15 92 22 96 15 9 29 82 29 153 1 26 8 58 16 71 8 12 21 63 28 112 8
49 21 105 29 124 9 19 19 68 22 108 3 42 14 92 25 115 10 23 22 71 26 107 8
84 14 107 29 113 7 3 13 26 14 53 4 89 14 149 29 165 8 10 18 54 23 102 5 47
17 100 26 119 10 18 21 66 24 108 3 41 14 91 24 110 10 19 20 68 23 110 3 48
12 87 25 110 14 23 23 64 28 123 5 59 12 93 23 105 10 10 17 27 17 38 0 12 3
15 8 7 4 -6 5 26 4 72 -4 75 -2 84 19 104 19 18 23 33 27 108 3 66 9 93 22
108 13 14 20 46 25 110 10 126 18 143 38 80 14 -45 15 -47 16 -18 1 17 -3 34
-8 37 -5 4 -8 18 -6 34 2 15 6 58 10 96 3 41 15 85 28 110 l22 41 6 -45 6 -45
1 48 c1 29 -2 47 -9 47 -19 0 -4 135 19 173 13 22 21 57 24 109 3 46 11 86 21
101 8 13 19 40 22 60 6 28 3 37 -12 45 -11 6 -141 11 -324 12 l-305 1 -12 -25z"/>
</g>
</svg>
